<svg viewBox="0 0 327 327" fill="none" xmlns="http://www.w3.org/2000/svg">
<g clip-path="url(#clip0_1432_70)">
<path d="M326.87 163.43C326.87 253.69 253.7 326.86 163.44 326.86C103.23 326.86 50.6295 294.31 22.2795 245.84C16.6795 236.28 12.0295 226.1 8.45954 215.42C7.32954 212.05 6.30954 208.64 5.39954 205.18V205.16C3.88954 199.46 2.68954 193.63 1.80954 187.7C0.629535 179.78 0.0195353 171.67 0.0195353 163.42C-0.00046465 73.17 73.1695 0 163.43 0C231.34 0 289.58 41.42 314.25 100.38C322.37 119.78 326.86 141.08 326.86 163.43H326.87Z" fill="#FED42A"/>
<path d="M326.87 163.43L233.48 254.12L186.09 225.86L205.23 156.59L114.54 280.09L56.6596 258.67L76.2596 182.56L22.2796 245.83C16.6796 236.27 12.0296 226.09 8.45957 215.41C7.39957 211.97 6.39957 208.55 5.39957 205.17V205.15C3.88957 199.45 2.68957 193.62 1.80957 187.69L88.0996 86.8695L135.04 115.12L126.38 170.72L215.25 46.7695L275.4 68.6395L261.73 152.49L314.25 100.38C322.37 119.78 326.86 141.08 326.86 163.43H326.87Z" fill="black"/>
</g>
<defs>
<clipPath id="clip0_1432_70">
<rect width="326.87" height="326.87" fill="white"/>
</clipPath>
</defs>
</svg>
