<?xml version="1.0" encoding="utf-8"?>
<!-- Generator: Adobe Illustrator 25.4.1, SVG Export Plug-In . SVG Version: 6.00 Build 0)  -->
<svg version="1.1" id="Слой_1" xmlns="http://www.w3.org/2000/svg" xmlns:xlink="http://www.w3.org/1999/xlink" x="0px" y="0px"
	 viewBox="0 0 388 166" style="enable-background:new 0 0 388 166;" xml:space="preserve">
<style type="text/css">
	.st0{fill-rule:evenodd;clip-rule:evenodd;fill:#BDBFC1;}
	.st1{fill-rule:evenodd;clip-rule:evenodd;fill:#00B3E5;}
	.st2{fill:#BDBFC1;}
</style>
<desc>Created with Sketch.</desc>
<g id="Page-1">
	<g id="Cargosil-Landing" transform="translate(-523.000000, -170.000000)">
		<g id="Group-7" transform="translate(484.000000, 170.000000)">
			<g id="logo_x2F_elastomeric-cargosil" transform="translate(39.000000, 0.000000)">
				<path id="Fill-1" class="st0" d="M147.2,74c-2.5,0.3-5,0.7-7.6,1.1c0-11.7,0.1-23.4,0.1-35.1c2.4,0.4,4.9,0.8,7.3,1.1
					c0,1.4,0,2.8,0,4.2c-1.5-0.2-2.9-0.3-4.4-0.5c0,3.1,0,6.3,0,9.4c1,0,2.1,0.1,3.1,0.1c0,1.4,0,2.9,0,4.3c-1,0-2.1,0-3.1,0
					c0,3.9,0,7.7,0,11.6c1.5-0.2,3.1-0.3,4.6-0.5C147.2,71.2,147.2,72.6,147.2,74"/>
				<path id="Fill-3" class="st0" d="M149.6,41.5c1,0.1,2,0.3,2.9,0.4c0,9.2-0.1,18.3-0.1,27.4c1.2-0.1,2.3-0.2,3.5-0.3
					c0,1.3,0,2.6,0,3.9c-2.1,0.2-4.3,0.5-6.4,0.8C149.5,63,149.6,52.3,149.6,41.5"/>
				<path id="Fill-5" class="st0" d="M160.8,62.9c0.9,0,1.7-0.1,2.6-0.1c-0.4-5.3-0.8-10.7-1.3-16.1
					C161.7,52.1,161.2,57.4,160.8,62.9 M163.7,66.5c-1.1,0.1-2.2,0.1-3.3,0.2c-0.2,1.9-0.3,3.9-0.5,5.9c-1,0.1-2,0.2-2.9,0.3
					c0.8-10.2,1.7-20.3,2.5-30.2c1.7,0.2,3.5,0.3,5.2,0.5c0.8,9.7,1.5,19.3,2.3,28.8c-1,0.1-1.9,0.2-2.9,0.2
					C164,70.3,163.9,68.4,163.7,66.5"/>
				<path id="Fill-7" class="st0" d="M171.8,63.2c0,1.6,0,3.2,0,4.8c0.8,0,1.7-0.1,2.5-0.1c0-3,0-5.9,0-8.9c-1.2,0-2.3,0-3.5,0
					c-1.1,0-2-1.2-2-2.4c0-3.6,0-7.1,0-10.7c0-1.4,0.8-2.4,2-2.3c1.5,0.1,3,0.2,4.5,0.3c1.1,0.1,2,1.1,2,2.4c0,1.9,0,3.8,0,5.7
					c-1,0-2,0-3-0.1c0-1.5,0-3,0-4.6c-0.8,0-1.7-0.1-2.5-0.1c0,2.7,0,5.4,0,8.1c1.2,0,2.3,0,3.5,0c1.1,0,2,1.1,2,2.4
					c0,3.7,0,7.4,0,11.2c0,1.2-0.9,2.3-2,2.4c-1.5,0.1-3,0.2-4.5,0.3c-1,0.1-2-1-2-2.3c0-2,0-4.1,0-6.1
					C169.9,63.3,170.9,63.2,171.8,63.2"/>
				<path id="Fill-9" class="st0" d="M181.6,47.7c-0.9,0-1.7-0.1-2.6-0.1c0-1.2,0-2.3,0-3.5c2.7,0.1,5.5,0.2,8.2,0.3
					c0,1.1,0,2.3,0,3.4c-0.9,0-1.7,0-2.6-0.1c0,7.7,0,15.5-0.1,23.3c-1,0-2,0.1-3,0.1C181.6,63.3,181.6,55.5,181.6,47.7"/>
				<path id="Fill-11" class="st0" d="M194.3,48c-0.8,0-1.7,0-2.5,0c0,6.5,0,13.1-0.1,19.6c0.8,0,1.7,0,2.5,0
					C194.2,61,194.2,54.5,194.3,48 M188.8,46.8c0-1.2,0.9-2.3,2-2.2c1.5,0,3,0,4.5,0c1.1,0,2,1.1,2,2.3c0,7.3,0,14.6-0.1,21.9
					c0,1.2-0.9,2.2-2,2.2c-1.5,0-3,0-4.5,0c-1.1,0-2-1-2-2.2C188.8,61.4,188.8,54.1,188.8,46.8"/>
				<path id="Fill-13" class="st0" d="M209.9,71.3c0-4.9,0-9.7,0-14.6c-0.8,2.9-1.6,5.8-2.5,8.7c-0.8,0-1.6,0-2.4-0.1
					c-0.7-2.9-1.5-5.8-2.2-8.7c0,4.8,0,9.6,0,14.3c-1,0-2,0-3-0.1c0-8.8,0-17.6,0.1-26.4c1,0,2,0,3,0c1.2,4.4,2.3,8.8,3.5,13.3
					c1.2-4.5,2.5-8.9,3.7-13.5c1,0,2-0.1,3-0.1c0,9.1-0.1,18.2-0.1,27.3C211.8,71.4,210.9,71.3,209.9,71.3"/>
				<path id="Fill-15" class="st0" d="M223,72.2c-2.5-0.2-5.1-0.4-7.6-0.5c0-9.2,0.1-18.4,0.1-27.6c2.5-0.1,4.9-0.3,7.4-0.5l0,3.7
					c-1.5,0.1-2.9,0.2-4.4,0.2c0,2.6,0,5.1,0,7.7c1,0,2.1,0,3.1,0c0,1.2,0,2.4,0,3.7c-1,0-2.1,0-3.1,0c0,3.2,0,6.3,0,9.5
					c1.6,0.1,3.1,0.2,4.6,0.3L223,72.2z"/>
				<path id="Fill-17" class="st0" d="M228.3,56.3l2.1,0c0-3.2,0-6.4,0-9.5c-0.7,0.1-1.4,0.1-2.1,0.1
					C228.3,50,228.3,53.1,228.3,56.3 M230.8,60.1c-0.8,0-1.7,0-2.5,0l0,12.5c-1-0.1-2-0.2-2.9-0.3c0-9.7,0.1-19.3,0.1-29
					c2-0.2,4-0.4,6.1-0.6c1.1-0.1,2,1,2,2.4c0,3.6,0,7.1,0,10.7c0,1.1-0.4,1.9-1,2.1c0.9,0.3,1.4,1.5,1.4,2.6c0,4.2,0,8.4,0,12.6
					c-1-0.1-2-0.2-2.9-0.3C230.8,68.6,230.8,64.4,230.8,60.1"/>
				<path id="Fill-19" class="st0" d="M236.2,42.3c1-0.1,2-0.2,2.9-0.4c0,10.6-0.1,21.3-0.1,32c-1-0.1-2-0.2-2.9-0.4
					C236.2,63.1,236.2,52.7,236.2,42.3"/>
				<path id="Fill-21" class="st0" d="M247.2,51.1l0-5.9c-0.8,0.1-1.6,0.2-2.5,0.3c0,8.3,0,16.6-0.1,24.8c0.8,0.1,1.6,0.2,2.5,0.3
					c0-2,0-3.9,0-5.9c1,0.1,2,0.1,2.9,0.2c0,2.5,0,5.1,0,7.6c0,1.6-0.9,2.8-2,2.6c-1.5-0.2-2.9-0.5-4.4-0.7c-1-0.2-2-1.5-1.9-3
					c0-9,0.1-18.1,0.1-27.1c0-1.5,0.9-2.9,2-3.1c1.5-0.2,3-0.4,4.4-0.6c1.1-0.2,1.9,1.1,1.9,2.7c0,2.5,0,5,0,7.5
					C249.1,51,248.1,51,247.2,51.1"/>
				<polygon id="Fill-23" class="st0" points="180.9,89.4 177.1,89.4 177.2,77.9 180.9,77.9 180.9,79.4 178.6,79.4 178.6,82.5 
					180.2,82.5 180.2,84 178.6,84 178.6,87.9 180.9,87.9 				"/>
				<path id="Fill-25" class="st0" d="M183.6,85.9l0,2l1.2,0l0-3.7l-1.7,0c-0.6,0-1-0.5-1-1l0-4.3c0-0.6,0.4-1,1-1l2.2,0
					c0.6,0,1,0.4,1,1l0,2.4l-1.5,0l0-1.9l-1.2,0l0,3.3l1.7,0c0.6,0,1,0.5,1,1l0,4.7c0,0.5-0.4,1-1,1l-2.2,0c-0.5,0-1-0.4-1-1l0-2.5
					L183.6,85.9z"/>
				<polygon id="Fill-27" class="st0" points="188.4,79.4 187.1,79.4 187.1,77.9 191.2,77.9 191.2,79.4 189.9,79.4 189.9,89.4 
					188.4,89.4 				"/>
				<polygon id="Fill-29" class="st0" points="191,87.9 192.5,87.9 192.5,89.4 191,89.4 				"/>
				<polygon id="Fill-31" class="st0" points="195.4,79.4 194.7,79.4 194.7,78.6 195.4,77.9 196.8,77.9 196.8,89.4 195.3,89.4 				
					"/>
				<path id="Fill-33" class="st0" d="M200.9,79.4l-1.2,0l0,3.3l1.2,0L200.9,79.4z M202.3,88.5c0,0.5-0.4,1-1,1l-2.2,0
					c-0.1,0-0.1,0-0.2,0c-0.5-0.1-0.8-0.5-0.8-1l0-2.5l1.5,0l0,2l1.2,0l0-3.7l-1.7,0c-0.5,0-1-0.4-1-1l0-4.5c0.1-0.5,0.5-0.8,1-0.8
					l2.2,0c0.6,0,1,0.5,1,1L202.3,88.5z"/>
				<path id="Fill-35" class="st0" d="M206.2,82.8l0-3.3l-0.9,0l0,3.3L206.2,82.8z M205.1,88l1.2,0l0-3.7l-1.2,0L205.1,88z
					 M203.8,78.9c0-0.6,0.4-1,1-1l1.9,0c0.6,0,1,0.5,1,1l0,3.7c0,0.4-0.2,0.7-0.5,0.8c0.4,0.1,0.7,0.6,0.7,1l0,4.1c0,0.5-0.4,1-1,1
					l-2.2,0c-0.1,0-0.1,0-0.2,0c-0.5-0.1-0.8-0.5-0.8-1l0-4.1c0-0.4,0.2-0.9,0.7-1c-0.3-0.1-0.5-0.4-0.5-0.8L203.8,78.9z"/>
				<polygon id="Fill-37" class="st0" points="211.5,79.5 208.7,79.5 208.7,78 213,78 213,79.8 211.2,89.5 209.6,89.5 				"/>
				<path id="Fill-59" class="st0" d="M256.1,54.6c25.3,9.4,48,24.3,66.5,43.2l1.7-1.7c-18.8-19.2-41.7-34.3-67.4-43.8L256.1,54.6z"
					/>
				<path id="Fill-61" class="st0" d="M63.6,98.4c18.5-19,41.1-34,66.3-43.5l-0.8-2.2c-25.6,9.6-48.5,24.8-67.2,44L63.6,98.4z"/>
				<g id="Group-65" transform="translate(0.000000, 112.876322)">
					<path id="Fill-63" class="st1" d="M13.4,49.5c-4.2-2.2-7.5-5.3-9.9-9.2C1.2,36.3,0,31.8,0,26.8s1.2-9.5,3.6-13.4
						c2.4-3.9,5.7-7,9.9-9.2c4.2-2.2,8.9-3.3,14.1-3.3c4.8,0,9.1,0.8,12.9,2.5c3.8,1.7,6.9,4.2,9.3,7.4l-10.5,9.4
						c-3.1-3.9-6.7-5.8-10.8-5.8c-3.5,0-6.3,1.1-8.4,3.4c-2.1,2.2-3.2,5.2-3.2,9s1.1,6.8,3.2,9c2.1,2.2,4.9,3.4,8.4,3.4
						c4.1,0,7.8-1.9,10.8-5.8l10.5,9.4c-2.5,3.2-5.6,5.7-9.3,7.4c-3.8,1.7-8.1,2.5-12.9,2.5C22.3,52.7,17.6,51.6,13.4,49.5"/>
				</g>
				<path id="Fill-66" class="st1" d="M83,143.8l-4.8-12.5l-4.8,12.5H83z M87.6,155.9H68.8l-3.3,8.6h-17L70.1,115h16.4l21.6,49.5
					H90.9L87.6,155.9z"/>
				<path id="Fill-68" class="st1" d="M138.7,129.4c-1.1-1-2.8-1.5-5.1-1.5h-6.1v11.6h6.1c2.3,0,4-0.5,5.1-1.5
					c1.1-1,1.7-2.4,1.7-4.3C140.4,131.8,139.8,130.4,138.7,129.4L138.7,129.4z M132,152h-4.5v12.5h-16.7V115h23.8
					c4.6,0,8.6,0.8,11.9,2.3c3.4,1.5,6,3.7,7.8,6.5c1.8,2.8,2.8,6.1,2.8,9.9c0,3.5-0.8,6.6-2.4,9.3c-1.6,2.6-3.9,4.7-6.9,6.3
					l10.4,15.3h-17.8L132,152z"/>
				<path id="Fill-70" class="st1" d="M196.2,138.4h14.5v20.9c-2.9,2-6.3,3.6-10.2,4.7c-3.9,1.1-7.7,1.6-11.4,1.6
					c-5.3,0-10-1.1-14.2-3.3c-4.2-2.2-7.5-5.3-9.9-9.2c-2.4-3.9-3.6-8.4-3.6-13.4c0-5,1.2-9.5,3.6-13.4c2.4-3.9,5.7-7,10-9.2
					c4.3-2.2,9.1-3.3,14.5-3.3c4.9,0,9.2,0.8,13,2.4c3.8,1.6,7,4,9.6,7.1l-10.7,9.4c-3.1-3.6-6.8-5.4-11.1-5.4
					c-3.7,0-6.6,1.1-8.8,3.3c-2.2,2.2-3.3,5.2-3.3,9.1c0,3.7,1.1,6.7,3.2,9c2.1,2.3,5,3.4,8.6,3.4c2.1,0,4.1-0.4,6.1-1.2V138.4z"/>
				<path id="Fill-72" class="st1" d="M249.4,150.6c1.7-1,3-2.5,4-4.3s1.5-4,1.5-6.5s-0.5-4.7-1.5-6.5c-1-1.9-2.3-3.3-4-4.3
					c-1.7-1-3.5-1.5-5.6-1.5c-2.1,0-3.9,0.5-5.6,1.5c-1.7,1-3,2.5-4,4.3c-1,1.9-1.5,4-1.5,6.5s0.5,4.7,1.5,6.5c1,1.9,2.3,3.3,4,4.3
					c1.7,1,3.5,1.5,5.6,1.5C245.9,152.1,247.7,151.6,249.4,150.6 M229.4,162.3c-4.2-2.2-7.6-5.3-10-9.2c-2.4-3.9-3.6-8.4-3.6-13.3
					s1.2-9.4,3.6-13.3c2.4-3.9,5.7-7,10-9.2c4.2-2.2,9-3.3,14.3-3.3c5.3,0,10.1,1.1,14.3,3.3c4.2,2.2,7.6,5.3,10,9.2
					c2.4,3.9,3.6,8.4,3.6,13.3s-1.2,9.4-3.6,13.3c-2.4,3.9-5.7,7-10,9.2c-4.2,2.2-9,3.3-14.3,3.3
					C238.5,165.6,233.7,164.5,229.4,162.3"/>
				<path id="Fill-75" class="st1" d="M284.2,164.2c-3.9-0.9-7.1-2.2-9.6-3.7l5.4-12.2c2.4,1.4,5,2.5,7.9,3.3
					c2.9,0.8,5.7,1.2,8.4,1.2c2.3,0,4-0.2,4.9-0.7c1-0.4,1.5-1.1,1.5-2c0-1-0.6-1.8-1.9-2.3c-1.3-0.5-3.4-1.1-6.4-1.7
					c-3.8-0.8-7-1.7-9.5-2.6c-2.5-0.9-4.8-2.4-6.6-4.5c-1.9-2.1-2.8-4.9-2.8-8.5c0-3.1,0.9-5.9,2.6-8.5c1.7-2.5,4.3-4.6,7.8-6
					c3.5-1.5,7.7-2.2,12.6-2.2c3.4,0,6.7,0.4,10,1.1c3.3,0.7,6.2,1.8,8.7,3.2l-5,12.1c-4.9-2.5-9.4-3.7-13.8-3.7
					c-4.3,0-6.4,1-6.4,3.1c0,1,0.6,1.7,1.9,2.2c1.3,0.5,3.4,1,6.3,1.6c3.8,0.7,6.9,1.5,9.5,2.4c2.6,0.9,4.8,2.4,6.8,4.5
					c1.9,2.1,2.9,4.9,2.9,8.5c0,3.1-0.9,5.9-2.6,8.5c-1.7,2.5-4.3,4.5-7.8,6c-3.5,1.5-7.7,2.2-12.6,2.2
					C292.1,165.6,288.1,165.2,284.2,164.2"/>
				<polygon id="Fill-77" class="st1" points="324.2,164.5 340.9,164.5 340.9,115 324.2,115 				"/>
				<polygon id="Fill-79" class="st1" points="349,115 365.6,115 365.6,151.5 388,151.5 388,164.5 349,164.5 				"/>
			</g>
		</g>
	</g>
</g>
<g>
	<g>
		<g>
			<path class="st2" d="M195.2,32.8c0,0-0.1,0-0.1,0c0,0,0,0,0,0c-0.7,0-1.2,1.8-1.7,1.9c0.2-0.2,0.4-0.5,0.6-1.9c0,0,0,0,0,0
				c0.1-1,0-2.1,0-3c0,0,0,0,0,0c-0.2-1.6,0.4-3.2,2.5-4.1c-0.8,0.6-1.8,1.6-1.9,2.5c0.1,0,0.2,0,0.3-0.1l0,0c0.2,0,0.5-0.1,0.8-0.2
				l0.2-0.1c0.5-0.1,1-0.4,1.4-0.6l9-3.6c3.5-1.3,5.1-5.1,4-9.4c-1.2-4.3-4.7-7-8.3-6.2l-9.3,1.9c-0.7,0-1.3,0-1.9,0.2l-0.2,0.1
				c-0.2,0.1-0.6,0.2-0.8,0.2l0,0c-3.8,1.1-5.8,6-4.4,10.9c0.3,1,0.7,2,1.2,2.8c0.2-0.5,0.6-0.9,0.8-1.1c0,0,0,0,0,0
				c-2.1-3.2-1.9-9.9,3-11.6c1.1-0.3,2.4-0.3,3.6,0.3c0.1,0.1,0.2,0.1,0.4,0.2c0.1,0,0.1,0.1,0.2,0.1c0.1,0.1,0.2,0.2,0.4,0.2
				c0.1,0,0.1,0.1,0.2,0.1c0.1,0.1,0.3,0.2,0.4,0.4c0,0,0.1,0.1,0.1,0.1c0.2,0.2,0.3,0.3,0.5,0.5c0,0,0.1,0.1,0.1,0.1
				c0.1,0.1,0.2,0.3,0.3,0.4c0.1,0.1,0.1,0.1,0.2,0.2c0.1,0.1,0.2,0.3,0.3,0.4c0.1,0.1,0.1,0.2,0.2,0.2c0.1,0.1,0.2,0.3,0.2,0.4
				c0.1,0.1,0.1,0.2,0.2,0.3c0.1,0.1,0.1,0.3,0.2,0.4c0,0.1,0.1,0.2,0.1,0.3c0.1,0.2,0.1,0.3,0.2,0.5c0,0.1,0.1,0.2,0.1,0.2
				c0.1,0.3,0.2,0.5,0.3,0.8c1,3.4,0.2,6.8-1.8,8.7c1.8-2.1,1.5-6,1.5-6s-7.9,1.6-10.1,3.3c-0.6,0.5-0.7,1.3-0.6,1.9c0,0,0,0,0,0
				c0.2,2.4,2.4,4,3,7.5c-10.1,0.2-17.6,1.3-17.6,2.5c0,1.4,10,2.5,22.3,2.5c12.3,0,22.3-1.1,22.3-2.5
				C217.5,34,207.5,32.8,195.2,32.8z M189.8,11.6c0.2-0.1,0.4-0.2,0.7-0.3C190.2,11.4,190,11.5,189.8,11.6z M206,22.9l-7,2.8
				c0.3-0.3,0.5-0.7,0.7-1.1l8.5-3.2C207.7,22.1,206.9,22.6,206,22.9z M197,11.7c0,0-0.1-0.1-0.1-0.1c-0.1-0.1-0.2-0.2-0.3-0.3
				c-0.6-0.4-1.2-0.8-1.8-1l7.5-1.5c0.7-0.2,1.5-0.1,2.2,0l-7.6,1.5c0,0,0.3,0.2,0.6,0.3l7.9-1.6c1.4,0.6,2.7,1.8,3.5,3.4l0,0
				c0,0,0,0,0,0c0,0,0,0,0,0c0.2,0.4,0.4,0.8,0.5,1.3c0.1,0.2,0.1,0.4,0.2,0.6c0,0,0,0,0,0l0,0c0.3,1.2,0.5,2.6,0.4,3.7
				c0-0.6-0.1-1.4-0.3-2.1l-8.5,2.4c0,1.2-0.1,2.8-0.7,4.2c0.2-1,0.3-2,0.3-3c0,0,0,0,0,0c0-0.5-0.1-1.1-0.2-1.7c0-0.1,0-0.1,0-0.2
				c-0.1-0.3-0.1-0.5-0.2-0.8c-0.1-0.3-0.2-0.5-0.2-0.8c0-0.1-0.1-0.2-0.1-0.2c-0.1-0.2-0.1-0.3-0.2-0.5c-0.1-0.2-0.1-0.3-0.2-0.5
				c-0.1-0.1-0.1-0.2-0.2-0.3c-0.1-0.1-0.2-0.3-0.2-0.4c0,0,0-0.1-0.1-0.1C198.5,13.2,197.8,12.4,197,11.7z M188.5,24.7
				c0,0,3.9,1,5.5,1C192.2,26.3,188.3,25.5,188.5,24.7z M192.3,35.8c7.8,0,15.3-0.6,15.3-0.9c0-0.2-2-0.5-5-0.7c0,0,2.4,0.1,3.5,0.2
				c2.2,0.3,2.2,0.4,2.2,0.5c0,0.1,0,0.6-4.7,0.9c-2.8,0.2-6.4,0.3-9.8,0.3c0,0,0,0,0,0c-3.6,0-7.7-0.2-9.6-0.5
				C184.1,35.6,189.6,35.8,192.3,35.8z M195.2,37.1c-11.4,0-16.6-0.9-18.3-1.1c4.5,0.5,9,0.7,18.3,0.7c13.1,0.1,19.5-1.4,19.5-1.7
				c0-0.3-1.7-0.5-5.1-1c1,0,5.6,0.5,5.6,1C215.3,35.9,207.3,37.1,195.2,37.1z"/>
			<path class="st2" d="M209.5,15.8c-0.1-0.4-0.2-0.8-0.4-1.2l-8.1,2.3c0,0,0.1,0.5,0.1,1.3L209.5,15.8z"/>
			<path class="st2" d="M187.9,22.5c0,0,1.9-1.5,10.2-3c-0.1-2.4-2.4-8.3-7-7.7c-2.2,0.3-3.5,2.2-3.9,4.5l5.8-0.9l-5.9,1.3
				c0,0.2-0.1,0.4-0.1,0.6l8.2-1.7l-8.2,2.6C187,19.9,187.3,21.4,187.9,22.5z"/>
		</g>
	</g>
</g>
</svg>
