<svg  viewBox="0 0 602 84" fill="none" xmlns="http://www.w3.org/2000/svg">
<path d="M21.75 78.48C14.96 74.93 9.63 69.97 5.78 63.6C1.93 57.22 0 49.99 0 41.9C0 33.81 1.93 26.58 5.78 20.21C9.63 13.84 14.96 8.88 21.75 5.33C28.54 1.77 36.18 0 44.65 0C52.43 0 59.38 1.37 65.49 4.12C71.59 6.87 76.63 10.84 80.6 16.03L63.54 31.26C58.58 25 52.74 21.87 46.02 21.87C40.37 21.87 35.83 23.68 32.4 27.31C28.97 30.94 27.25 35.8 27.25 41.91C27.25 48.02 28.97 52.88 32.4 56.51C35.83 60.14 40.37 61.95 46.02 61.95C52.74 61.95 58.57 58.82 63.54 52.56L80.6 67.79C76.63 72.98 71.59 76.95 65.49 79.7C59.38 82.45 52.44 83.82 44.65 83.82C36.18 83.82 28.55 82.05 21.75 78.5V78.48Z" fill="var(--text)"/>
<path d="M141.839 68.0001H111.389L106.009 81.9701H78.5293L113.569 1.83008H140.129L175.159 81.9701H147.229L141.849 68.0001H141.839ZM134.399 48.5401L126.619 28.3901L118.839 48.5401H134.409H134.399Z" fill="var(--text)"/>
<path d="M213.85 61.8201H206.52V81.9701H179.5V1.83008H218.08C225.48 1.83008 231.93 3.05008 237.43 5.49008C242.93 7.93008 247.16 11.4401 250.14 16.0201C253.12 20.6001 254.6 25.9401 254.6 32.0501C254.6 37.7701 253.3 42.7701 250.71 47.0501C248.11 51.3301 244.37 54.7201 239.49 57.2401L256.32 81.9701H227.47L213.85 61.8201ZM224.61 25.1301C222.78 23.4901 220.03 22.6701 216.37 22.6701H206.52V41.4501H216.37C220.03 41.4501 222.78 40.6301 224.61 38.9901C226.44 37.3501 227.36 35.0401 227.36 32.0601C227.36 29.0801 226.44 26.7801 224.61 25.1301Z" fill="var(--text)"/>
<path d="M308.91 37.6205H331V69.5205C326.54 72.6105 321.37 74.9805 315.48 76.6305C309.59 78.2805 303.8 79.1105 298.13 79.1105C290.08 79.1105 282.86 77.4405 276.47 74.1005C270.07 70.7605 265.06 66.0905 261.44 60.0905C257.81 54.0905 256 47.2805 256 39.6705C256 32.0605 257.81 25.2505 261.44 19.2505C265.07 13.2505 270.13 8.58047 276.64 5.24047C283.14 1.90047 290.49 0.230469 298.68 0.230469C306.08 0.230469 312.71 1.47047 318.56 3.95047C324.42 6.43047 329.28 10.0405 333.16 14.7805L316.89 29.1105C312.15 23.5805 306.51 20.8105 299.97 20.8105C294.37 20.8105 289.91 22.5005 286.61 25.8805C283.3 29.2605 281.65 33.8605 281.65 39.6805C281.65 45.5005 283.28 49.9205 286.55 53.3705C289.82 56.8205 294.18 58.5405 299.64 58.5405C302.87 58.5405 305.96 57.9305 308.91 56.7105V37.6305V37.6205Z" fill="#00B2E3"/>
<path d="M359.559 74.0507C353.089 70.6707 348.029 65.9907 344.359 59.9907C340.699 53.9907 338.859 47.2207 338.859 39.6707C338.859 32.1207 340.689 25.3507 344.359 19.3507C348.019 13.3507 353.089 8.6607 359.559 5.2907C366.029 1.9107 373.319 0.220703 381.439 0.220703C389.559 0.220703 396.849 1.9107 403.319 5.2907C409.789 8.6707 414.849 13.3607 418.519 19.3507C422.179 25.3507 424.019 32.1207 424.019 39.6707C424.019 47.2207 422.189 53.9907 418.519 59.9907C414.859 65.9907 409.789 70.6807 403.319 74.0507C396.849 77.4307 389.559 79.1207 381.439 79.1207C373.319 79.1207 366.029 77.4307 359.559 74.0507ZM390.009 56.2107C392.559 54.6707 394.589 52.4707 396.099 49.6407C397.609 46.8007 398.359 43.4807 398.359 39.6707C398.359 35.8607 397.609 32.5407 396.099 29.7007C394.589 26.8607 392.559 24.6707 390.009 23.1307C387.459 21.5907 384.599 20.8107 381.439 20.8107C378.279 20.8107 375.419 21.5807 372.869 23.1307C370.319 24.6807 368.289 26.8707 366.779 29.7007C365.269 32.5407 364.519 35.8607 364.519 39.6707C364.519 43.4807 365.269 46.8007 366.779 49.6407C368.289 52.4807 370.319 54.6707 372.869 56.2107C375.419 57.7607 378.279 58.5307 381.439 58.5307C384.599 58.5307 387.459 57.7607 390.009 56.2107Z" fill="#00B2E3"/>
<path d="M443.151 76.79C437.221 75.39 432.351 73.5 428.551 71.13L436.741 52.59C440.331 54.67 444.351 56.34 448.811 57.6C453.261 58.86 457.541 59.49 461.641 59.49C465.161 59.49 467.681 59.15 469.181 58.47C470.691 57.79 471.441 56.76 471.441 55.4C471.441 53.82 470.451 52.63 468.481 51.84C466.501 51.05 463.251 50.19 458.731 49.25C452.911 48.03 448.061 46.72 444.181 45.32C440.301 43.92 436.921 41.62 434.051 38.42C431.181 35.22 429.741 30.89 429.741 25.43C429.741 20.69 431.071 16.38 433.731 12.5C436.391 8.62 440.361 5.57 445.641 3.34C450.921 1.11 457.331 0 464.881 0C470.051 0 475.141 0.559998 480.131 1.67C485.121 2.78 489.521 4.42 493.331 6.57L485.681 25C478.281 21.26 471.271 19.4 464.661 19.4C458.051 19.4 454.851 20.98 454.851 24.14C454.851 25.65 455.821 26.78 457.761 27.54C459.701 28.29 462.901 29.1 467.351 29.96C473.101 31.04 477.951 32.28 481.901 33.68C485.851 35.08 489.281 37.36 492.191 40.52C495.101 43.68 496.551 47.99 496.551 53.45C496.551 58.19 495.221 62.49 492.561 66.33C489.901 70.17 485.931 73.23 480.651 75.49C475.371 77.75 468.961 78.89 461.411 78.89C455.161 78.89 449.071 78.19 443.141 76.79H443.151Z" fill="var(--text)"/>
<path class='logo_l' d="M504.102 1.73047H529.542V77.1705H504.102V1.73047Z" fill="var(--text)"/>
<path class='logo_l' d="M541.82 1.73047H567.26V57.4505H601.32V77.1705H541.83V1.73047H541.82Z" fill="var(--text)"/>
</svg>
