<svg xmlns="http://www.w3.org/2000/svg" width="25" height="25" viewBox="0 0 25 25" fill="#242424">
  <g clip-path="url(#clip0_1365_38)">
    <path d="M12.5 0C5.6075 0 0 5.60758 0 12.5001C0 19.3926 5.6075 25 12.5 25C19.3925 25 25 19.3926 25 12.5001C25 5.60758 19.3925 0 12.5 0ZM12.5 22.7273C6.86061 22.7273 2.27273 18.1394 2.27273 12.5001C2.27273 6.86076 6.86061 2.27273 12.5 2.27273C18.1394 2.27273 22.7273 6.86076 22.7273 12.5001C22.7273 18.1394 18.1393 22.7273 12.5 22.7273Z"/>
    <path d="M12.5002 5.30273C11.6649 5.30273 10.9854 5.98273 10.9854 6.81857C10.9854 7.65364 11.6649 8.33304 12.5002 8.33304C13.3355 8.33304 14.015 7.65364 14.015 6.81857C14.015 5.98273 13.3355 5.30273 12.5002 5.30273Z"/>
    <path d="M12.4996 10.6064C11.8721 10.6064 11.3633 11.1152 11.3633 11.7428V18.561C11.3633 19.1886 11.8721 19.6974 12.4996 19.6974C13.1272 19.6974 13.636 19.1886 13.636 18.561V11.7428C13.636 11.1152 13.1272 10.6064 12.4996 10.6064Z"/>
  </g>
  <defs>
    <clipPath id="clip0_1365_38">
      <rect width="25" height="25" fill="white"/>
    </clipPath>
  </defs>
</svg>