<svg xmlns="http://www.w3.org/2000/svg" width="25" height="25" viewBox="0 0 25 25" fill="var(--text)">
  <path d="M4.88281 15.7852H7.8125C8.35186 15.7852 8.78906 15.3479 8.78906 14.8086C8.78906 14.2692 8.35186 13.832 7.8125 13.832H4.88281C4.34346 13.832 3.90625 14.2692 3.90625 14.8086C3.90625 15.3479 4.34346 15.7852 4.88281 15.7852Z"/>
  <path d="M4.88281 11.8789H7.8125C8.35186 11.8789 8.78906 11.4417 8.78906 10.9023C8.78906 10.363 8.35186 9.92578 7.8125 9.92578H4.88281C4.34346 9.92578 3.90625 10.363 3.90625 10.9023C3.90625 11.4417 4.34346 11.8789 4.88281 11.8789Z"/>
  <path d="M10.6172 14.8081C10.6172 15.3475 11.0544 15.7847 11.5938 15.7847C13.6358 15.7847 15.5556 14.9895 16.9996 13.5455L24.1412 6.40325C25.2861 5.25837 25.2863 3.4051 24.1412 2.26003C22.9989 1.11775 21.1403 1.11775 19.9979 2.26003L12.8563 9.40232C11.4125 10.8463 10.6172 12.7661 10.6172 14.8081ZM21.3791 3.64114C21.7598 3.26038 22.3794 3.26038 22.7601 3.64114C23.1417 4.02268 23.1419 4.6405 22.7601 5.02219L15.6185 12.1645C14.8021 12.9809 13.7813 13.5187 12.6716 13.7303C12.8832 12.6206 13.421 11.5998 14.2374 10.7834L21.3791 3.64114Z"/>
  <path d="M2.92969 23.5977C3.65117 23.5977 4.34463 23.3329 4.88242 22.852L6.23237 21.6445H16.2109C18.9034 21.6445 21.0938 19.4541 21.0938 16.7617V14.5711C21.0938 14.0318 20.6565 13.5946 20.1172 13.5946C19.5778 13.5946 19.1406 14.0318 19.1406 14.5711V16.7617C19.1406 18.3771 17.8264 19.6914 16.2109 19.6914H5.85938C5.61914 19.6914 5.38735 19.7799 5.2083 19.9401L3.58047 21.3962C3.40132 21.5563 3.17021 21.6445 2.92969 21.6445C2.39121 21.6445 1.95312 21.2064 1.95312 20.668V8.94922C1.95312 7.33379 3.26738 6.01953 4.88281 6.01953H13.0737C13.613 6.01953 14.0502 5.58232 14.0502 5.04297C14.0502 4.50361 13.613 4.06641 13.0737 4.06641H4.88281C2.19038 4.06641 0 6.25684 0 8.94922V20.668C0 22.2834 1.31426 23.5977 2.92969 23.5977Z"/>
</svg>