<svg xmlns="http://www.w3.org/2000/svg" width="25" height="25" viewBox="0 0 25 25" fill="#242424">
  <g clip-path="url(#clip0_1364_32)">
    <path d="M9.375 0H2.34375C1.05133 0 0 1.05133 0 2.34375V9.375C0 10.6674 1.05133 11.7188 2.34375 11.7188H9.375C10.6674 11.7188 11.7188 10.6674 11.7188 9.375V2.34375C11.7188 1.05133 10.6674 0 9.375 0ZM10.1562 9.375C10.1562 9.80568 9.80606 10.1562 9.375 10.1562H2.34375C1.91269 10.1562 1.5625 9.80568 1.5625 9.375V2.34375C1.5625 1.91307 1.91269 1.5625 2.34375 1.5625H9.375C9.80606 1.5625 10.1562 1.91307 10.1562 2.34375V9.375Z" />
    <path d="M22.6562 0H15.625C14.3326 0 13.2812 1.05133 13.2812 2.34375V9.375C13.2812 10.6674 14.3326 11.7188 15.625 11.7188H22.6562C23.9487 11.7188 25 10.6674 25 9.375V2.34375C25 1.05133 23.9487 0 22.6562 0ZM23.4375 9.375C23.4375 9.80568 23.0873 10.1562 22.6562 10.1562H15.625C15.1939 10.1562 14.8438 9.80568 14.8438 9.375V2.34375C14.8438 1.91307 15.1939 1.5625 15.625 1.5625H22.6562C23.0873 1.5625 23.4375 1.91307 23.4375 2.34375V9.375Z"/>
    <path d="M22.6562 13.2812H15.625C14.3326 13.2812 13.2812 14.3326 13.2812 15.625V22.6562C13.2812 23.9487 14.3326 25 15.625 25H22.6562C23.9487 25 25 23.9487 25 22.6562V15.625C25 14.3326 23.9487 13.2812 22.6562 13.2812ZM23.4375 22.6562C23.4375 23.0869 23.0873 23.4375 22.6562 23.4375H15.625C15.1939 23.4375 14.8438 23.0869 14.8438 22.6562V15.625C14.8438 15.1943 15.1939 14.8438 15.625 14.8438H22.6562C23.0873 14.8438 23.4375 15.1943 23.4375 15.625V22.6562Z"/>
    <path d="M9.375 13.2812H2.34375C1.05133 13.2812 0 14.3326 0 15.625V22.6562C0 23.9487 1.05133 25 2.34375 25H9.375C10.6674 25 11.7188 23.9487 11.7188 22.6562V15.625C11.7188 14.3326 10.6674 13.2812 9.375 13.2812ZM10.1562 22.6562C10.1562 23.0869 9.80606 23.4375 9.375 23.4375H2.34375C1.91269 23.4375 1.5625 23.0869 1.5625 22.6562V15.625C1.5625 15.1943 1.91269 14.8438 2.34375 14.8438H9.375C9.80606 14.8438 10.1562 15.1943 10.1562 15.625V22.6562Z"/>
  </g>
  <defs>
    <clipPath id="clip0_1364_32">
      <rect width="25" height="25" fill="white"/>
    </clipPath>
  </defs>
</svg>