<svg xmlns="http://www.w3.org/2000/svg" width="25" height="25" viewBox="0 0 25 25" fill="var(--text)">
  <g clip-path="url(#clip0_1365_46)">
    <path d="M23.4375 0.78125H6.25C5.6284 0.78125 5.03226 1.02818 4.59272 1.46772C4.15318 1.90726 3.90625 2.5034 3.90625 3.125V3.90625H1.5625C1.3553 3.90625 1.15659 3.98856 1.01007 4.13507C0.86356 4.28159 0.78125 4.4803 0.78125 4.6875C0.78125 4.8947 0.86356 5.09341 1.01007 5.23993C1.15659 5.38644 1.3553 5.46875 1.5625 5.46875H3.90625V7.8125H1.5625C1.3553 7.8125 1.15659 7.89481 1.01007 8.04132C0.86356 8.18784 0.78125 8.38655 0.78125 8.59375C0.78125 8.80095 0.86356 8.99966 1.01007 9.14618C1.15659 9.29269 1.3553 9.375 1.5625 9.375H3.90625V11.7188H1.5625C1.3553 11.7188 1.15659 11.8011 1.01007 11.9476C0.86356 12.0941 0.78125 12.2928 0.78125 12.5C0.78125 12.7072 0.86356 12.9059 1.01007 13.0524C1.15659 13.1989 1.3553 13.2812 1.5625 13.2812H3.90625V15.625H1.5625C1.3553 15.625 1.15659 15.7073 1.01007 15.8538C0.86356 16.0003 0.78125 16.199 0.78125 16.4062C0.78125 16.6135 0.86356 16.8122 1.01007 16.9587C1.15659 17.1052 1.3553 17.1875 1.5625 17.1875H3.90625V19.5312H1.5625C1.3553 19.5312 1.15659 19.6136 1.01007 19.7601C0.86356 19.9066 0.78125 20.1053 0.78125 20.3125C0.78125 20.5197 0.86356 20.7184 1.01007 20.8649C1.15659 21.0114 1.3553 21.0938 1.5625 21.0938H3.90625V21.875C3.90625 22.4966 4.15318 23.0927 4.59272 23.5323C5.03226 23.9718 5.6284 24.2188 6.25 24.2188H23.4375C23.6447 24.2188 23.8434 24.1364 23.9899 23.9899C24.1364 23.8434 24.2188 23.6447 24.2188 23.4375V1.5625C24.2188 1.3553 24.1364 1.15659 23.9899 1.01007C23.8434 0.86356 23.6447 0.78125 23.4375 0.78125ZM22.6562 22.6562H6.25C6.0428 22.6562 5.84409 22.5739 5.69757 22.4274C5.55106 22.2809 5.46875 22.0822 5.46875 21.875V3.125C5.46875 2.9178 5.55106 2.71909 5.69757 2.57257C5.84409 2.42606 6.0428 2.34375 6.25 2.34375H22.6562V22.6562Z"/>
    <path d="M10.1562 19.9219H17.9688C18.5904 19.9219 19.1865 19.6749 19.626 19.2354C20.0656 18.7959 20.3125 18.1997 20.3125 17.5781C20.3099 16.3789 19.9623 15.2058 19.3112 14.1987C18.6601 13.1916 17.7331 12.3931 16.6406 11.8984C17.0585 11.5367 17.3934 11.0892 17.6226 10.5863C17.8518 10.0834 17.9699 9.53703 17.9688 8.98438C17.9688 7.94837 17.5572 6.9548 16.8246 6.22224C16.0921 5.48968 15.0985 5.07812 14.0625 5.07812C13.0265 5.07812 12.0329 5.48968 11.3004 6.22224C10.5678 6.9548 10.1563 7.94837 10.1562 8.98438C10.1562 9.53571 10.2748 10.0806 10.504 10.582C10.7332 11.0835 11.0675 11.5298 11.4844 11.8906C10.3907 12.3858 9.46286 13.1856 8.8117 14.1942C8.16054 15.2028 7.81365 16.3776 7.8125 17.5781C7.8125 18.1997 8.05943 18.7959 8.49897 19.2354C8.93851 19.6749 9.53465 19.9219 10.1562 19.9219ZM14.0625 6.64062C14.526 6.64062 14.9792 6.77808 15.3646 7.03562C15.75 7.29315 16.0504 7.6592 16.2278 8.08746C16.4052 8.51573 16.4516 8.98697 16.3612 9.44162C16.2708 9.89626 16.0476 10.3139 15.7198 10.6417C15.392 10.9694 14.9744 11.1927 14.5197 11.2831C14.0651 11.3735 13.5939 11.3271 13.1656 11.1497C12.7373 10.9723 12.3713 10.6719 12.1137 10.2865C11.8562 9.90107 11.7188 9.44792 11.7188 8.98438C11.7188 8.36277 11.9657 7.76663 12.4052 7.32709C12.8448 6.88755 13.4409 6.64063 14.0625 6.64062ZM14.0625 12.8906C15.3057 12.8906 16.498 13.3845 17.3771 14.2636C18.2561 15.1426 18.75 16.3349 18.75 17.5781C18.75 17.7853 18.6677 17.984 18.5212 18.1306C18.3747 18.2771 18.176 18.3594 17.9688 18.3594H10.1562C9.94905 18.3594 9.75034 18.2771 9.60382 18.1306C9.45731 17.984 9.375 17.7853 9.375 17.5781C9.37397 16.9619 9.49446 16.3515 9.72957 15.7819C9.96468 15.2123 10.3098 14.6946 10.7452 14.2585C11.1805 13.8224 11.6976 13.4764 12.2669 13.2404C12.8361 13.0043 13.4463 12.8828 14.0625 12.8828V12.8906Z"/>
  </g>
  <defs>
    <clipPath id="clip0_1365_46">
      <rect width="25" height="25" fill="var(--text)"/>
    </clipPath>
  </defs>
</svg>