<svg xmlns="http://www.w3.org/2000/svg" width="27" height="27" viewBox="0 0 27 27" fill="#242424">
  <g clip-path="url(#clip0_1364_26)">
    <path d="M3.58803 24.2971C3.58803 24.2971 3.56403 24.8871 4.14103 24.8871C4.85903 24.8871 10.793 24.8791 10.793 24.8791L10.803 19.4281C10.803 19.4281 10.709 18.5301 11.58 18.5301H14.341C15.372 18.5301 15.309 19.4281 15.309 19.4281L15.297 24.8621C15.297 24.8621 20.925 24.8621 21.809 24.8621C22.541 24.8621 22.508 24.1281 22.508 24.1281V14.0761L13.33 5.91309L3.58803 14.0771V24.2971Z"/>
    <path d="M0 13.3169C0 13.3169 0.826 14.8409 2.631 13.3169L13.412 4.19591L23.519 13.2599C25.607 14.7659 26.39 13.2599 26.39 13.2599L13.412 1.50391L0 13.3169Z" />
    <path d="M23.2728 4.1748H20.6738L20.6848 7.3278L23.2728 9.5248V4.1748Z"/>
  </g>
  <defs>
    <clipPath id="clip0_1364_26">
      <rect width="26.39" height="26.39" fill="white"/>
    </clipPath>
  </defs>
</svg>